<svg width="1000" height="100" viewBox="0 0 1000 100" fill="none" xmlns="http://www.w3.org/2000/svg">
<path d="M854.226 88.4419V49.5645L988.647 58.1473L953.284 75.6796L987.527 96.9548L854.226 88.4419Z" fill="white"/>
<path d="M859.68 51.5624L880.96 52.9215L980.069 59.2505L966.764 65.8484L950.095 74.1129L947.105 75.5946L949.611 77.1516L969.484 89.4989L977.833 94.6871L926.934 91.4366L859.68 87.1419V51.5624ZM848.771 47.5656C848.771 61.6258 848.771 75.6849 848.771 89.7441C898.255 92.9043 947.738 96.0645 997.218 99.2236C984.633 91.4043 972.047 83.5839 959.462 75.7645C972.047 69.5247 984.633 63.2849 997.218 57.0452C947.738 53.8849 898.255 50.7258 848.771 47.5656Z" fill="#1C1C1A"/>
<path d="M893.236 85.7333L947.156 92.2731L889.265 90.2882L893.236 85.7333Z" fill="#1C1C1A"/>
<path d="M893.236 81.471L947.156 88.0107L889.265 86.0269L893.236 81.471Z" fill="#1C1C1A"/>
<path d="M893.236 77.2097L947.156 83.7484L889.265 81.7645L893.236 77.2097Z" fill="#1C1C1A"/>
<path d="M893.236 72.9473L947.156 79.4871L889.265 77.5022L893.236 72.9473Z" fill="#1C1C1A"/>
<path d="M893.236 68.686L947.156 75.2247L889.265 73.2409L893.236 68.686Z" fill="#1C1C1A"/>
<path d="M893.236 64.4237L947.156 70.9634L889.265 68.9785L893.236 64.4237Z" fill="#1C1C1A"/>
<path d="M893.236 60.1624L947.156 66.7011L889.265 64.7172L893.236 60.1624Z" fill="#1C1C1A"/>
<path d="M893.236 55.9L947.156 62.4398L889.265 60.4548L893.236 55.9Z" fill="#1C1C1A"/>
<path d="M893.236 51.6376L947.156 58.1774L889.265 56.1935L893.236 51.6376Z" fill="#1C1C1A"/>
<path d="M848.771 89.7441V64.6L933.727 82.2774L848.771 89.7441Z" fill="#1C1C1A"/>
<path d="M778.709 71.5183V32.628L928.273 41.4645V80.3538L778.709 71.5183Z" fill="white"/>
<path d="M784.164 34.5957L849.535 38.4581L922.818 42.7871V78.3871L893.527 76.657L784.167 70.1968L784.164 34.5957ZM773.255 30.6613C773.255 44.7204 773.255 58.7806 773.255 72.8398C826.745 76 880.236 79.1602 933.727 82.3194C933.727 68.2602 933.727 54.2 933.727 40.1409C880.236 36.9817 826.745 33.8215 773.255 30.6613Z" fill="#1C1C1A"/>
<path d="M839.505 71.872L893.429 78.4118L835.534 76.4269L839.505 71.872Z" fill="#1C1C1A"/>
<path d="M839.505 67.6107L893.429 74.1495L835.534 72.1656L839.505 67.6107Z" fill="#1C1C1A"/>
<path d="M839.505 63.3484L893.429 69.8882L835.534 67.9032L839.505 63.3484Z" fill="#1C1C1A"/>
<path d="M839.505 59.0871L893.429 65.6258L835.534 63.6419L839.505 59.0871Z" fill="#1C1C1A"/>
<path d="M839.505 54.8247L893.429 61.3645L835.534 59.3796L839.505 54.8247Z" fill="#1C1C1A"/>
<path d="M839.505 50.5624L893.429 57.1021L835.534 55.1172L839.505 50.5624Z" fill="#1C1C1A"/>
<path d="M839.505 46.3011L893.429 52.8398L835.534 50.8559L839.505 46.3011Z" fill="#1C1C1A"/>
<path d="M839.505 42.0387L893.429 48.5785L835.534 46.5936L839.505 42.0387Z" fill="#1C1C1A"/>
<path d="M839.505 37.7774L893.429 44.3161L835.534 42.3323L839.505 37.7774Z" fill="#1C1C1A"/>
<path d="M839.505 33.515L893.429 40.0548L835.534 38.0699L839.505 33.515Z" fill="#1C1C1A"/>
<path d="M865.473 90.1419L893.429 90.8903L900.996 84.7548L865.473 85.8796V90.1419Z" fill="#1C1C1A"/>
<path d="M773.258 72.8409V40.586L858.211 67.7441L773.258 72.8409Z" fill="#1C1C1A"/>
<path d="M786.953 72.0194L829.131 65.6258L848.771 66.657L840.771 74.1495L786.953 72.0194Z" fill="#1C1C1A"/>
<path d="M43.9345 75.6796L8.57091 58.1473L142.993 49.5645V88.4419L9.69091 96.9548L43.9345 75.6796Z" fill="white"/>
<path d="M137.538 51.5624V87.1409L71.92 91.3312L19.3855 94.686L28.7273 88.8806L47.6073 77.1516L50.1127 75.5946L47.1236 74.1129L44.0873 72.6086L17.1455 59.2516L115.818 52.9505L137.538 51.5624ZM148.447 47.5656C98.9636 50.7258 49.48 53.886 0 57.0452C12.5855 63.2849 25.1709 69.5247 37.7564 75.7645C25.1709 83.5839 12.5855 91.4043 0 99.2236C49.4836 96.0634 98.9673 92.9032 148.447 89.7441C148.447 75.6849 148.447 61.6247 148.447 47.5656Z" fill="#1C1C1A"/>
<path d="M107.953 90.2882L50.0582 92.2731L103.982 85.7333L107.953 90.2882Z" fill="#1C1C1A"/>
<path d="M107.953 86.0269L50.0582 88.0107L103.982 81.471L107.953 86.0269Z" fill="#1C1C1A"/>
<path d="M107.953 81.7645L50.0582 83.7484L103.982 77.2097L107.953 81.7645Z" fill="#1C1C1A"/>
<path d="M107.953 77.5022L50.0582 79.4871L103.982 72.9473L107.953 77.5022Z" fill="#1C1C1A"/>
<path d="M107.953 73.2409L50.0582 75.2247L103.982 68.686L107.953 73.2409Z" fill="#1C1C1A"/>
<path d="M107.953 68.9785L50.0582 70.9634L103.982 64.4237L107.953 68.9785Z" fill="#1C1C1A"/>
<path d="M107.953 64.7172L50.0582 66.7011L103.982 60.1624L107.953 64.7172Z" fill="#1C1C1A"/>
<path d="M107.953 60.4548L50.0582 62.4398L103.982 55.9L107.953 60.4548Z" fill="#1C1C1A"/>
<path d="M107.953 56.1935L50.0582 58.1774L103.982 51.6376L107.953 56.1935Z" fill="#1C1C1A"/>
<path d="M148.447 89.7441V64.6L63.4909 82.2774L148.447 89.7441Z" fill="#1C1C1A"/>
<path d="M68.9455 41.4645L218.509 32.628V71.5183L68.9455 80.3538V41.4645Z" fill="white"/>
<path d="M213.055 34.5957V70.1957L123.102 75.5097L74.4036 78.3871V42.7871L147.92 38.4441L213.055 34.5957ZM223.964 30.6613C170.473 33.8215 116.982 36.9817 63.4909 40.1409C63.4909 54.2 63.4909 68.2602 63.4909 82.3194C116.982 79.1591 170.473 75.9989 223.964 72.8398C223.964 58.7806 223.964 44.7215 223.964 30.6613Z" fill="#1C1C1A"/>
<path d="M161.684 76.4269L103.789 78.4118L157.713 71.872L161.684 76.4269Z" fill="#1C1C1A"/>
<path d="M161.684 72.1656L103.789 74.1495L157.713 67.6107L161.684 72.1656Z" fill="#1C1C1A"/>
<path d="M161.684 67.9032L103.789 69.8882L157.713 63.3484L161.684 67.9032Z" fill="#1C1C1A"/>
<path d="M161.684 63.6419L103.789 65.6258L157.713 59.0871L161.684 63.6419Z" fill="#1C1C1A"/>
<path d="M161.684 59.3796L103.789 61.3645L157.713 54.8247L161.684 59.3796Z" fill="#1C1C1A"/>
<path d="M161.684 55.1172L103.789 57.1021L157.713 50.5624L161.684 55.1172Z" fill="#1C1C1A"/>
<path d="M161.684 50.8559L103.789 52.8398L157.713 46.3011L161.684 50.8559Z" fill="#1C1C1A"/>
<path d="M161.684 46.5936L103.789 48.5785L157.713 42.0387L161.684 46.5936Z" fill="#1C1C1A"/>
<path d="M161.684 42.3323L103.789 44.3161L157.713 37.7774L161.684 42.3323Z" fill="#1C1C1A"/>
<path d="M161.684 38.0699L103.789 40.0548L157.713 33.515L161.684 38.0699Z" fill="#1C1C1A"/>
<path d="M131.745 90.1419L103.789 90.8903L96.2218 84.7548L131.745 85.8796V90.1419Z" fill="#1C1C1A"/>
<path d="M223.96 72.8409V40.586L139.007 67.7441L223.96 72.8409Z" fill="#1C1C1A"/>
<g filter="url(#filter0_d_1_2)">
<path d="M144.469 21.3914C257.702 8.27954 376.782 1.62581 498.451 1.61398C620.436 1.62581 739.516 8.27954 852.745 21.3914V65.3817C739.378 52.4183 620.28 45.8452 498.607 45.8387C376.938 45.8452 257.84 52.4183 144.469 65.3817V21.3914Z" fill="white"/>
<path d="M498.451 2.11398C620.259 2.12579 739.169 8.76103 852.245 21.8366V64.821C739.025 51.8974 620.099 45.3451 498.608 45.3386H498.607C377.119 45.3451 258.193 51.8974 144.969 64.821V21.8366C258.049 8.76104 376.958 2.12581 498.451 2.11398Z" stroke="black"/>
</g>
<path d="M498.556 3.22689H498.764C618.513 3.23872 735.731 9.71937 847.291 22.4936V63.0376C735.52 50.5591 618.295 44.2312 498.607 44.2258C378.92 44.2312 261.695 50.5591 149.927 63.0376V22.4936C261.487 9.71937 378.705 3.23872 498.455 3.22689H498.556ZM498.767 0C498.716 0 498.662 0.00108288 498.611 0.00108288C498.56 0.00108288 498.505 0 498.455 0V0.00108288C376.462 0.0129109 254.473 6.77528 139.022 20.2925C139.022 36.1097 139.022 51.9269 139.022 67.7441C254.524 54.2215 376.567 47.4581 498.615 47.4516C620.662 47.457 742.702 54.2215 858.207 67.7441C858.207 51.9269 858.207 36.1097 858.207 20.2925C742.753 6.77528 620.767 0.0129109 498.775 0.00108288V0H498.767Z" fill="#1C1C1A"/>
<path d="M141.865 21.8043L199.76 19.8204L145.836 26.3602L141.865 21.8043Z" fill="#1C1C1A"/>
<path d="M141.865 26.0667L199.76 24.0817L145.836 30.6215L141.865 26.0667Z" fill="#1C1C1A"/>
<path d="M141.865 30.329L199.76 28.3441L145.836 34.8839L141.865 30.329Z" fill="#1C1C1A"/>
<path d="M141.865 34.5903L199.76 32.6064L145.836 39.1452L141.865 34.5903Z" fill="#1C1C1A"/>
<path d="M141.865 38.8527L199.76 36.8677L145.836 43.4075L141.865 38.8527Z" fill="#1C1C1A"/>
<path d="M141.865 43.114L199.76 41.1301L145.836 47.6688L141.865 43.114Z" fill="#1C1C1A"/>
<path d="M141.865 47.3764L199.76 45.3914L145.836 51.9312L141.865 47.3764Z" fill="#1C1C1A"/>
<path d="M141.865 51.6376L199.76 49.6538L145.836 56.1935L141.865 51.6376Z" fill="#1C1C1A"/>
<path d="M141.865 55.9L199.76 53.9161L145.836 60.4548L141.865 55.9Z" fill="#1C1C1A"/>
<path d="M141.865 60.1624L199.76 58.1774L145.836 64.7172L141.865 60.1624Z" fill="#1C1C1A"/>
<path d="M210.262 72.0194L168.087 65.6258L148.447 66.657L156.447 74.1495L210.262 72.0194Z" fill="#1C1C1A"/>
<path d="M851.382 26.3602L797.458 19.8204L855.353 21.8043L851.382 26.3602Z" fill="#1C1C1A"/>
<path d="M851.382 30.6215L797.458 24.0817L855.353 26.0667L851.382 30.6215Z" fill="#1C1C1A"/>
<path d="M851.382 34.8839L797.458 28.3441L855.353 30.329L851.382 34.8839Z" fill="#1C1C1A"/>
<path d="M851.382 39.1452L797.458 32.6064L855.353 34.5903L851.382 39.1452Z" fill="#1C1C1A"/>
<path d="M851.382 43.4075L797.458 36.8677L855.353 38.8527L851.382 43.4075Z" fill="#1C1C1A"/>
<path d="M851.382 47.6688L797.458 41.1301L855.353 43.114L851.382 47.6688Z" fill="#1C1C1A"/>
<path d="M851.382 51.9312L797.458 45.3914L855.353 47.3764L851.382 51.9312Z" fill="#1C1C1A"/>
<path d="M851.382 56.1935L797.458 49.6538L855.353 51.6376L851.382 56.1935Z" fill="#1C1C1A"/>
<path d="M851.382 60.4548L797.458 53.9161L855.353 55.9L851.382 60.4548Z" fill="#1C1C1A"/>
<path d="M851.382 64.7172L797.458 58.1774L855.353 60.1624L851.382 64.7172Z" fill="#1C1C1A"/>
<defs>
<filter id="filter0_d_1_2" x="140.469" y="1.61398" width="716.276" height="71.7677" filterUnits="userSpaceOnUse" color-interpolation-filters="sRGB">
<feFlood flood-opacity="0" result="BackgroundImageFix"/>
<feColorMatrix in="SourceAlpha" type="matrix" values="0 0 0 0 0 0 0 0 0 0 0 0 0 0 0 0 0 0 127 0" result="hardAlpha"/>
<feOffset dy="4"/>
<feGaussianBlur stdDeviation="2"/>
<feComposite in2="hardAlpha" operator="out"/>
<feColorMatrix type="matrix" values="0 0 0 0 0 0 0 0 0 0 0 0 0 0 0 0 0 0 0.25 0"/>
<feBlend mode="normal" in2="BackgroundImageFix" result="effect1_dropShadow_1_2"/>
<feBlend mode="normal" in="SourceGraphic" in2="effect1_dropShadow_1_2" result="shape"/>
</filter>
</defs>
</svg>
