<svg width="1434" height="247" viewBox="0 0 1434 247" fill="none" xmlns="http://www.w3.org/2000/svg">
<path d="M1079.74 176.393C1091.8 177.607 1103.63 179.142 1115.12 181.596C1123.32 183.35 1131.66 184.901 1139.98 186.48C1155.97 189.519 1172.38 191.894 1186.93 197.079C1193 199.243 1198.87 197.221 1199.08 193.197C1199.2 190.917 1199.59 188.632 1199.42 186.359C1199.11 182.231 1200.09 178.055 1198.29 173.976C1194.64 165.679 1196.05 157.295 1196.91 148.922C1197.36 144.554 1197.81 140.183 1198.44 135.823C1199.04 131.712 1198.09 127.536 1199.01 123.508C1200.56 116.717 1201.73 109.916 1202.84 103.101C1203.96 96.1869 1203.02 89.2593 1203.27 82.337C1203.5 76.1018 1200.59 70.1091 1195.82 64.5454C1193.57 61.9281 1191.08 59.3977 1186.09 57.5993C1171.94 52.4911 1156.21 49.1339 1142.1 44.031C1135.58 41.6744 1128.27 40.3262 1121.15 38.7279C1111.74 36.6162 1102.59 34.1149 1093.1 32.1401C1076.01 28.5854 1058.42 25.9865 1040.62 23.8248C1024.52 21.871 1008.62 19.4169 992.515 17.4921C979.049 15.8833 965.224 15.7518 951.57 14.8882C936.263 13.9218 921.002 12.7105 905.718 11.6073C895.733 10.8858 885.702 10.7305 875.657 10.4514C858.361 9.96958 841.135 8.68992 823.876 7.76307C804.582 6.72827 785.275 6.04623 765.917 7.21794C757.128 7.74983 748.174 7.72876 739.511 7.44438C723.062 6.90197 706.701 7.37594 690.321 7.56026C677.376 7.70508 664.449 8.4502 651.513 8.93995C645.399 9.17167 639.263 9.29811 633.186 9.7194C625.498 10.2513 617.898 11.2203 610.2 11.66C596.832 12.4209 583.325 11.968 569.979 13.095C558.152 14.0929 546.215 12.9633 539.305 13.3609C523.957 13.7928 513.769 14.975 503.526 15.8834C491.253 16.9709 478.786 16.8023 466.559 18.5665C449.231 21.0653 431.19 21.5024 413.724 23.8195C400.585 25.5626 387.212 26.7237 374.091 28.5037C360.861 30.2995 347.616 32.0795 334.445 34.0464C320.239 36.1661 306.92 39.4442 293.496 42.6724C282.508 45.3134 272.269 48.7996 261.603 51.7986C248.478 55.4876 239.271 60.6325 236.403 69.4454C234.46 75.4278 234.594 81.2969 234.492 87.2529C234.396 92.7034 233.53 98.1117 236.32 103.517C238.419 107.583 239.68 111.843 240.458 116.067C241.485 121.625 241.886 127.215 241.77 132.837C241.619 140.28 241.95 147.666 239.294 155.057C237.3 160.605 235.155 166.187 233.935 171.791C232.352 179.076 232.439 186.48 231.716 193.832C231.486 196.157 233.217 197.358 237.208 197.79C239.92 198.082 242.512 198.016 245.136 197.684C258.611 195.986 270.874 192.276 284.031 189.959C292.009 188.553 300.047 186.789 308.113 185.646C329.473 182.618 350.852 179.511 372.65 177.586C381.31 176.822 389.707 175.287 398.237 174.434C407.992 173.457 417.871 172.678 427.59 171.575C441.985 169.939 456.629 169.721 471.084 168.539C480.913 167.733 490.659 166.182 500.511 165.961C516.674 165.6 532.427 163.623 548.448 162.851C572.548 161.687 596.164 158.38 620.627 158.486C633.872 158.544 647.236 156.993 660.646 156.75C670.59 156.571 680.548 156.261 690.45 155.724C701.13 155.144 711.742 156.063 722.381 155.86C733.033 155.658 743.663 155.515 754.329 155.866C764.204 156.189 774.079 156.155 784.004 155.739C788.497 155.55 793.312 155.573 798.036 155.955C804.292 156.461 810.714 156.35 817.072 156.371C824.824 156.398 832.581 156.274 840.334 156.237C851.599 156.184 862.546 157.848 873.788 158.243C885.923 158.67 898.136 158.975 910.262 159.955C922.6 160.95 934.827 162.419 947.312 162.896C958.466 163.32 969.179 165.411 980.214 166.222C999.181 167.614 1018.02 169.365 1036.76 171.538C1051.09 173.183 1065.37 174.945 1079.74 176.393ZM1172.57 168.739C1171.87 169.839 1169.99 169.789 1167.9 169.837C1164.4 169.692 1161.03 168.533 1157.45 167.828C1141.17 164.613 1124.26 162.435 1108.63 158.159C1102.31 156.429 1095.94 154.778 1089.22 153.612C1087.79 153.362 1085.93 153.164 1086.47 152.003C1086.98 150.937 1088.69 151.466 1089.91 151.558C1107.74 152.911 1125.33 154.539 1141.91 159.052C1151.16 161.569 1160.56 163.968 1169.95 166.351C1171.63 166.772 1173.42 167.409 1172.57 168.739ZM1174.24 158.359C1173.21 159.815 1170.94 159.541 1169.08 159.189C1166.09 158.628 1163.22 157.872 1160.32 157.172C1141.99 152.738 1124.09 147.729 1105.36 143.843C1104.15 143.593 1102.17 143.527 1102.49 142.595C1102.89 141.368 1104.92 142.034 1106.28 142.029C1107.61 142.024 1108.95 142.121 1110.28 142.174C1131.06 143.006 1149.45 147.566 1166.7 153.933C1168.45 154.583 1170.32 155.136 1172.09 155.779C1173.73 156.369 1175.09 157.143 1174.24 158.359ZM1178.66 143.506C1177.38 144.82 1175.14 144.486 1173.32 144.041C1165.09 142.037 1156.95 139.922 1148.73 137.908C1140.38 135.86 1132.13 133.666 1123.89 131.497C1111.66 128.276 1099.25 125.446 1086.34 123.308C1085.12 123.108 1083.2 123.002 1083.72 121.981C1084.46 120.517 1086.92 120.983 1088.86 120.875C1101.43 121.654 1113.56 123.418 1125.45 125.972C1136.27 128.297 1147.04 130.685 1157.55 133.408C1164.48 135.201 1171.43 137.081 1176.94 140.246C1178.58 141.189 1179.95 142.179 1178.66 143.506ZM1171.2 116.109C1166.92 115.661 1162.79 113.742 1158.13 112.538C1143.94 108.871 1130.01 104.892 1116.02 100.982C1114.74 100.624 1111.99 100.597 1112.93 99.294C1113.63 98.3039 1115.88 98.8385 1117.47 98.9833C1132.18 100.308 1145.56 103.646 1158.7 107.514C1163.54 108.939 1168.52 110.253 1173.31 111.754C1175.26 112.362 1176.96 113.215 1176.44 114.7C1175.97 116.035 1174.05 116.125 1171.2 116.109ZM1175.53 125.333C1174.49 126.589 1172.63 126.241 1170.76 126.051C1162.28 125.196 1155.14 122.391 1147.18 120.756C1132.07 117.649 1117.54 113.639 1102.23 110.808C1101.44 110.661 1100.64 110.516 1099.87 110.327C1098.71 110.037 1097.87 109.563 1098.2 108.776C1098.56 107.923 1099.83 107.949 1101.47 107.978C1107.19 108.765 1113.37 109.529 1119.47 110.477C1137.15 113.228 1153.99 117.244 1170.53 121.723C1171.58 122.007 1172.64 122.31 1173.57 122.705C1175.08 123.344 1176.55 124.106 1175.53 125.333ZM1175.5 101.63C1174.2 102.577 1172.48 102.151 1170.96 101.68C1165.7 100.05 1160.92 97.959 1155.41 96.5503C1135.42 91.4369 1115.89 85.7205 1095.09 81.6893C1093.84 81.4497 1092.15 81.31 1092.27 80.3568C1092.43 79.1878 1094.13 79.5801 1094.32 79.588C1110.95 80.6755 1125.56 83.5324 1139.94 86.9106C1150.4 89.3673 1160.79 91.8818 1169.41 96.2369C1171.12 97.1059 1172.8 98.0011 1174.49 98.8832C1175.99 99.6573 1176.92 100.595 1175.5 101.63ZM1181.3 88.2877C1179.77 89.8044 1176.87 88.9539 1174.52 88.4168C1162.45 85.6705 1150.89 82.2634 1139 79.3011C1128.38 76.6523 1117.09 74.8617 1106.09 72.7078C1104.52 72.3998 1102.87 72.2102 1101.31 71.8863C1099.95 71.6046 1098.07 71.4334 1098.41 70.2696C1098.76 69.0346 1100.61 69.3901 1102.05 69.4059C1102.88 69.4164 1103.71 69.4824 1104.54 69.5245C1114.91 69.8115 1124.75 71.3412 1134.43 73.4503C1148.91 76.6021 1163.2 79.9461 1176.29 84.7515C1176.71 84.9042 1177.3 84.9543 1177.61 85.1518C1179.14 86.1102 1183.12 86.4788 1181.3 88.2877ZM1086.01 55.3375C1106.43 56.5671 1126.34 58.9816 1145.29 63.5816C1155.19 65.983 1165.22 68.2342 1173.34 72.4919C1175.53 73.6425 1178.22 74.8854 1176.29 76.5205C1174.09 78.39 1170.66 77.7001 1167.9 76.5495C1152.95 70.3143 1135.66 67.0942 1118.41 63.7844C1107.41 61.6727 1096.49 59.424 1085.53 57.2228C1084.46 57.0069 1083.07 56.7962 1083.29 55.9352C1083.52 55.011 1084.94 55.2006 1086.01 55.3375ZM248.957 77.013C251.015 73.977 255.586 72.4367 260.107 71.2176C283.695 64.8666 308.384 60.5457 334.358 58.7947C338.179 58.5366 341.991 58.3233 345.839 58.3023C348.505 58.3023 351.17 58.2864 353.836 58.3101C354.996 58.3207 356.414 58.3101 356.635 59.1606C356.86 60.0243 355.507 60.2586 354.374 60.4087C345.126 61.6225 335.831 62.7205 326.628 64.0292C315.677 65.588 304.821 67.3259 294.104 69.4086C284.515 71.2728 274.985 73.1239 266.271 76.1204C262.565 77.3948 258.901 78.7059 255.291 80.0672C253.399 80.7808 251.466 81.0046 249.776 80.1357C248.188 79.3142 248.11 78.2637 248.957 77.013ZM297.083 113.228C288.865 114.65 280.74 116.248 272.633 117.865C269.664 118.458 266.676 119.208 264.83 117.136C262.924 114.998 265.801 113.987 268.596 113.233C284.455 108.971 300.945 106.127 318.669 106.224C320.911 106.237 323.424 106.135 324.442 107.625C324.354 109.01 322.761 109.229 321.072 109.484C313.057 110.703 305.01 111.856 297.083 113.228ZM315.658 123.929C315.925 124.866 314.912 125.225 313.508 125.546C301.042 128.397 288.607 131.291 276.164 134.174C271.721 135.204 267.284 136.247 262.837 137.268C260.714 137.758 258.781 137.563 257.69 136.368C256.516 135.088 257.653 134.114 259.72 133.592C276.509 129.366 292.774 124.274 311.51 123.229C312.003 123.202 312.486 123.118 312.758 123.084C314.217 123.008 315.41 123.047 315.658 123.929ZM304.232 97.1797C292.051 99.3678 279.925 101.656 267.758 103.868C265.857 104.213 263.849 104.357 261.911 104.634C259.807 104.934 258.201 104.565 257.441 103.417C256.686 102.277 257.584 101.443 259.273 100.734C263.255 99.0649 267.974 98.3065 272.472 97.3955C289.128 94.0173 306.129 91.3606 323.774 90.2889C324.106 90.2678 324.442 90.2652 324.967 90.2468C325.441 90.2995 326.104 90.3521 326.744 90.4522C328.12 90.6655 330.008 90.5127 330.201 91.7003C330.399 92.8957 328.576 93.0194 327.204 93.2564C319.557 94.5808 311.855 95.8105 304.232 97.1797ZM324.331 77.8186C304.053 80.8229 283.99 84.1749 265.299 89.7597C263.173 90.3943 260.737 90.9393 258.988 89.5332C257.156 88.0614 258.97 87.0661 260.991 86.2208C265.981 84.1407 271.588 82.7003 277.292 81.4733C297.92 77.0366 319.249 74.2324 341.167 72.8658C342.999 72.8026 344.836 72.7473 346.668 72.6762C347.957 72.6262 349.577 72.2786 349.789 73.4425C349.964 74.4141 348.588 74.7458 347.202 74.8485C339.413 75.4278 331.9 76.6969 324.331 77.8186ZM250.223 156.358C249.339 154.989 249.753 153.738 251.894 152.777C256.166 150.855 261.331 149.949 266.239 148.822C279.29 145.826 292.451 142.992 305.622 140.17C316.749 137.787 328.346 136.628 340.163 136.178C341.599 136.123 343.514 136.144 343.597 137.323C343.666 138.314 341.926 138.406 340.665 138.548C329.289 139.836 319.258 143.14 308.555 145.426C299.615 147.335 290.734 149.343 281.767 151.208C274.631 152.69 268.002 154.749 261.267 156.711C259.214 157.309 256.87 157.577 254.951 157.943C252.663 157.835 250.936 157.461 250.223 156.358ZM362.081 152.327C345.181 154.741 328.603 157.69 312.518 161.569C306.133 163.109 299.191 163.894 292.787 165.413C283.065 167.72 273.393 170.15 264.54 173.47C261.354 174.666 257.957 175.079 255.636 173.254C253.436 171.527 255.931 170.166 258.334 168.941C265.069 165.508 273.48 163.728 281.573 162.046C291.31 160.021 300.669 157.411 310.764 155.879C322.08 154.159 333.345 152.351 344.85 151.089C350.245 150.497 355.654 149.904 361.538 149.904C362.665 150.065 364.93 149.483 365.22 150.897C365.464 152.071 363.434 152.132 362.081 152.327Z" fill="#F4EDDC"/>
<path d="M280.906 216.95C268.273 215.523 255.572 214.196 243.142 212.303C233.967 210.905 224.636 209.53 215.396 209.014C204.633 208.414 194.041 207.463 183.42 206.452C182.228 206.339 180.28 206.502 180.345 205.433C180.414 204.222 182.407 204.47 183.834 204.362C198.626 203.221 213.279 204.004 227.937 205.257C230.358 205.465 232.821 206.136 236.292 205.644C229.207 203.79 224.051 201.399 221.206 197.639C220.709 196.981 219.544 196.781 218.311 196.673C209.743 195.925 201.181 195.164 192.627 194.387C183.135 193.524 173.642 192.655 164.163 191.747C163.072 191.641 161.585 191.483 161.525 190.667C161.461 189.795 163.045 189.666 164.076 189.585C170.815 189.048 177.463 188.168 184.387 188.468C193.925 188.882 202.985 190.454 212.142 191.823C214.218 192.134 216.704 192.797 218.398 192.418C221.828 191.654 221.018 189.508 220.81 187.926C220.599 186.28 222.96 183.634 219.043 183.152C214.747 182.626 210.36 181.954 205.844 181.833C194.381 181.525 182.904 181.227 171.603 179.927C169.826 179.721 167.487 179.774 167.436 178.397C167.381 176.92 169.89 177.428 171.322 177.267C186.546 175.564 201.549 176.907 216.506 178.476C221.091 178.958 222.067 178.568 222.196 175.761C222.261 174.342 222.5 172.878 223.19 171.522C224.3 169.344 222.951 168.233 219.254 167.867C217.468 167.691 215.668 167.496 213.896 167.317C203.39 166.25 192.678 166.48 182.168 165.503C180.363 165.334 178.724 165.145 178.747 163.902C178.766 162.762 180.469 162.743 181.956 162.514C193.355 160.758 204.619 161.205 215.792 163.133C224.139 164.573 224.838 164.347 225.994 159.66C226.132 159.094 226.385 158.536 226.597 157.972C227.329 156.021 226.979 154.818 222.514 154.602C218.743 154.42 215.014 153.959 211.161 153.978C205.573 154.004 199.961 154.275 194.404 153.683C192.577 153.488 189.69 153.98 189.63 152.358C189.575 150.855 192.53 151.002 194.303 150.747C204.827 149.233 215.447 148.756 226.164 150.131C227.08 150.249 228.581 150.426 228.425 149.599C228.043 147.571 229.212 145.649 229.23 143.672C229.239 142.603 228.07 142.476 226.183 142.453C218.564 142.358 210.945 142.081 203.34 141.763C201.83 141.7 199.694 141.557 199.809 140.209C199.901 139.103 201.71 138.977 203.133 138.785C210.65 137.771 218.196 137.113 225.93 138.066C227.665 138.279 230.036 138.851 230.004 136.765C229.948 132.887 230.183 129.008 230.303 125.13C230.331 124.205 229.953 123.655 228.079 123.263C207.285 118.892 185.551 117.488 163.694 116.498C156.627 116.177 149.469 116.385 142.462 115.869C126.962 114.727 111.406 114.405 95.8506 114.721C84.1068 114.958 72.9016 117.186 60.1083 118.892C67.5108 121.301 73.1226 123.803 78.7159 126.346C90.6945 131.799 104.427 135.988 115.282 142.213C120.641 145.286 126.791 147.882 131.312 151.547C135.847 155.226 139.378 159.378 145.74 162.34C150.583 164.597 149.722 166.888 143.977 168.465C141.744 169.078 139.511 169.718 137.172 170.166C122.427 172.983 108.741 177.099 95.2521 181.422C89.6541 183.218 84.3693 185.359 79.1304 187.497C72.3769 190.254 65.6419 193.039 59.206 196.033C50.3625 200.149 44.249 205.694 36.805 210.544C31.3543 214.094 26.5435 217.896 22.1655 221.887C21.4841 222.506 20.3195 223.206 21.3047 223.962C22.3451 224.76 23.344 223.888 24.3476 223.701C29.0709 222.825 33.7021 221.471 38.5358 221.155C50.8734 220.347 63.1927 219.512 75.4705 218.417C88.1534 217.287 101.03 217.767 113.781 217.68C130.985 217.561 148.124 216.579 165.365 216.903C179.631 217.172 193.806 217.898 208.022 218.409C217.735 218.759 227.223 220.223 237.001 220.026C245.859 219.847 254.49 220.568 262.685 222.535C273.342 225.092 284.883 225.231 295.996 226.48C305.051 227.496 314.051 228.678 323.019 229.855C331.361 230.95 339.891 231.029 348.215 232.172C333.23 228.354 318.126 224.805 302.975 221.313C295.752 219.652 288.649 217.825 280.906 216.95Z" fill="#F4EDDC"/>
<path d="M1397.16 209.349C1389.78 204.588 1383.75 199.148 1375.11 195.027C1366.82 191.067 1357.73 187.723 1349.01 184.098C1335.01 178.278 1319.37 174.434 1303.72 170.513C1298.73 169.263 1293.56 168.212 1288.77 166.753C1283.9 165.271 1283.91 163.812 1287.57 161.521C1289.23 160.484 1291.28 159.765 1292.83 158.572C1299.53 153.409 1305.79 148.135 1314 143.514C1323.65 138.074 1334.85 134.032 1345.42 129.427C1354.37 125.53 1362.75 121.193 1372.64 117.844C1361.68 116.172 1351.14 114.108 1340.06 113.663C1326.82 113.131 1313.49 113.249 1300.37 114.205C1291.97 114.816 1283.59 114.884 1275.21 115.119C1268.7 115.3 1262.39 116.343 1255.95 116.348C1241.97 116.362 1228.67 118.31 1215.38 120.438C1212.72 120.864 1211.5 121.825 1211.3 123.273C1210.95 125.725 1210.91 128.195 1210.41 130.636C1210.02 132.518 1211.6 132.795 1214.21 132.555C1216.53 132.342 1218.83 132.107 1221.14 131.91C1225.59 131.528 1230.04 131.138 1234.5 130.809C1235.8 130.712 1237.36 130.646 1237.6 131.733C1237.8 132.608 1236.52 132.818 1235.44 133.071C1234.51 133.284 1233.57 133.482 1232.63 133.679C1226.48 134.956 1220.06 135.578 1213.66 136.273C1208.46 136.839 1209.71 139.177 1210.03 141.047C1210.44 143.364 1213.32 141.942 1215 141.784C1225.18 140.818 1235.34 139.793 1245.68 139.533C1247.19 139.493 1249.54 138.985 1249.94 140.286C1250.44 141.873 1247.61 141.671 1246.07 141.866C1234.51 143.33 1222.94 144.759 1211.32 146.042C1209.54 146.239 1208.96 146.731 1208.83 147.429C1208.6 148.69 1209 149.994 1208.72 151.247C1208.28 153.172 1209.43 153.499 1212.58 153.111C1226.02 151.455 1239.64 150.523 1253.36 150.141C1258.15 150.007 1262.98 150.289 1267.77 150.507C1269.37 150.581 1271.28 150.894 1271.18 152.177C1271.11 153.214 1269.61 153.577 1268.09 153.767C1267.12 153.888 1266.11 153.922 1265.12 153.954C1250.47 154.417 1235.81 154.744 1221.35 156.355C1208.53 157.783 1208.51 157.714 1208.27 164.973C1208.26 165.45 1208.39 165.942 1208.25 166.406C1207.54 168.689 1209.04 168.994 1212.69 168.423C1221.87 166.985 1231.33 166.506 1240.83 166.461C1243.64 166.448 1246.47 166.785 1249.28 166.98C1250.52 167.067 1251.65 167.341 1251.71 168.159C1251.77 168.947 1250.86 169.344 1249.56 169.481C1248.08 169.634 1246.63 169.847 1245.15 169.963C1235.27 170.737 1225.42 171.564 1215.64 172.775C1210.56 173.405 1208.6 174.068 1210.23 176.967C1210.48 177.404 1210.35 177.907 1210.43 178.378C1210.57 179.311 1211.24 179.748 1213.04 179.418C1217.43 178.613 1221.97 178.286 1226.55 177.968C1239.78 177.046 1253.04 177.223 1266.3 177.223C1267.16 177.223 1268.06 177.23 1268.3 177.815C1268.57 178.478 1267.92 178.929 1266.88 179.126C1265.94 179.305 1264.95 179.44 1263.96 179.484C1249.03 180.172 1234.3 181.628 1219.61 183.268C1209.55 184.392 1209.64 184.369 1209.91 190.151C1210 192.131 1211.35 192.666 1214.52 192.168C1225.12 190.512 1236.11 190.198 1246.83 189.074C1259.05 187.797 1270.55 189.027 1282.16 190.677C1283.45 190.862 1285.04 190.986 1285.02 191.976C1284.99 193.147 1283.3 193.216 1281.74 193.253C1280.74 193.276 1279.74 193.287 1278.74 193.308C1264.43 193.582 1250.02 192.821 1235.83 194.506C1230.65 195.122 1225.54 196.007 1220.32 196.433C1214.27 196.929 1209.45 197.911 1206.43 201.42C1205.03 203.037 1201.77 204.325 1197.87 204.878C1193.53 205.491 1188.62 205.762 1184.71 208.061C1200.98 207.2 1215.84 204.304 1231.27 203.201C1244.93 202.224 1258.61 201.376 1272.39 200.973C1283.49 200.649 1294.5 200.852 1305.51 201.578C1306.99 201.676 1308.81 201.647 1308.86 202.816C1308.9 203.701 1307.36 203.703 1306.22 203.767C1290.35 204.646 1274.5 206.068 1258.61 206.244C1239.35 206.458 1220.97 209.293 1202.24 211.055C1191.63 212.053 1181.2 213.654 1170.72 215.076C1159.56 216.59 1147.95 216.887 1137.02 218.991C1127.3 220.86 1117.82 223.067 1108.46 225.474C1100.99 227.393 1093.27 229.005 1085.28 230.843C1087.99 231.711 1089.69 230.685 1091.62 230.566C1103.76 229.829 1115.61 228.188 1127.43 226.527C1133.86 225.624 1140.46 225.342 1146.85 224.476C1154.21 223.48 1161.87 223.591 1169.04 221.735C1176.41 219.826 1184.56 218.67 1192.64 218.878C1204.49 219.183 1215.95 217.696 1227.57 217.101C1247.21 216.095 1266.9 215.363 1286.53 215.784C1305.15 216.184 1323.77 216.616 1342.4 216.713C1353.34 216.769 1364.01 217.861 1374.79 218.654C1386.44 219.512 1398.25 219.836 1409.31 222.467C1410.38 222.722 1411.58 223.731 1412.77 222.78C1413.66 222.059 1412.48 221.34 1411.78 220.708C1407.38 216.719 1402.63 212.885 1397.16 209.349Z" fill="#F4EDDC"/>
<path d="M403.766 226.79C392.672 224.089 381.812 221.069 370.791 218.267C361.022 215.787 351.258 213.277 341.291 211.073C332.807 209.196 324.727 206.818 316.409 204.751C308.449 202.774 299.891 201.27 292.815 198.361C287.71 196.262 283.134 196.265 276.408 197.824C320.888 208.327 363.089 220.039 406.565 230.382C405.456 229.192 407.233 227.633 403.766 226.79Z" fill="#F4EDDC"/>
<path d="M1143.34 196.436C1135.28 199.801 1125.68 201.473 1116.72 203.798C1100.66 207.972 1084.51 212.069 1068.11 215.837C1057.08 218.372 1046.31 221.321 1035.68 224.373C1032.28 225.347 1026.04 225.329 1027.84 229.394C1070.62 218.975 1112.19 207.395 1155.32 197.244C1151.16 195.091 1147.58 194.667 1143.34 196.436Z" fill="#F4EDDC"/>
<path d="M1030.77 217.574C1031.72 218.615 1033.67 217.519 1035.07 217.19C1042.11 215.536 1049.4 214.12 1056.08 212.066C1063.98 209.638 1072.77 208.498 1080.59 206.044C1092.44 202.316 1104.96 199.425 1117.4 196.428C1122.52 195.193 1127.64 193.966 1133.56 192.542C1129.19 190.817 1125.64 189.116 1121.85 192.265C1121.13 192.866 1119.88 193.205 1118.56 193.477C1110.14 195.193 1102.4 197.771 1094.13 199.727C1082.26 202.54 1070.14 205.041 1058.63 208.388C1050.4 210.781 1041.7 212.648 1033.24 214.797C1031.19 215.315 1029.88 216.608 1030.77 217.574Z" fill="#F4EDDC"/>
<path d="M300.443 193.895C310.263 195.567 318.347 198.229 327.089 200.064C340.711 202.924 352.988 207.466 366.638 210.368C377.958 212.774 388.823 215.884 399.931 218.63C400.875 218.865 402.136 219.523 403.112 218.915C404.226 218.219 402.993 217.498 402.491 216.829C401.888 216.029 400.465 215.96 399.25 215.652C390.034 213.317 380.753 211.052 371.693 208.535C359.926 205.265 347.598 202.779 335.564 199.885C328.088 198.087 320.607 196.162 313.729 193.887C308.868 192.281 305.7 192.347 300.443 193.895Z" fill="#F4EDDC"/>
<path d="M352.229 224.894C352.179 224.894 352.128 224.886 352.077 224.884C352.091 224.915 352.133 224.925 352.146 224.956L352.229 224.894Z" fill="#F4EDDC"/>
<path d="M347.855 223.257C341.76 221.587 335.541 220.073 329.413 218.441C319.888 215.905 310.626 212.99 300.843 210.849C289.21 208.303 278.622 204.506 266.832 202.15C261.349 201.054 259.476 200.76 254.895 203.132C262.997 206.544 272.937 207.716 281.983 209.644C299.347 213.346 316.118 217.89 333.676 221.245C339.831 222.422 345.356 224.673 352.077 224.884C351.478 223.686 349.347 223.665 347.855 223.257Z" fill="#F4EDDC"/>
<path d="M1137.12 211.661C1145.47 209.917 1153.82 208.159 1161.96 206.129C1166.3 205.044 1171.61 205.123 1175.51 202.758C1172.05 201.939 1169.76 200.238 1165.7 201.315C1151.35 205.131 1136.93 208.88 1122.47 212.561C1114.81 214.51 1107.34 216.684 1099.6 218.557C1093.59 220.01 1087.23 221.29 1082.07 223.765C1087.53 223.804 1091.63 221.629 1096.59 220.811C1110.59 218.496 1123.47 214.512 1137.12 211.661Z" fill="#F4EDDC"/>
<path d="M1081.9 223.832C1081.95 223.809 1082.01 223.791 1082.07 223.765C1081.98 223.765 1081.9 223.775 1081.82 223.773L1081.9 223.832Z" fill="#F4EDDC"/>
<path d="M1034.94 206.213C1035.53 207.126 1037.08 206.703 1037.93 206.505C1047.91 204.177 1057.86 201.789 1067.79 199.39C1075.7 197.481 1083.69 195.665 1091.45 193.566C1098.43 191.678 1105.35 189.719 1113.08 188.044C1104.88 186.23 1104.89 186.236 1099.35 189.121C1098.64 189.495 1097.84 189.89 1096.96 190.072C1086.11 192.289 1075.57 194.933 1065.1 197.679C1055.8 200.117 1046.34 202.353 1036.91 204.628C1035.54 204.957 1034.31 205.244 1034.94 206.213Z" fill="#F4EDDC"/>
<path d="M326.113 190.211C333.718 192.194 340.716 193.914 347.543 195.799C363.37 200.167 380.007 203.406 395.917 207.635C396.801 207.869 398.371 208.211 399.015 207.442C399.743 206.576 398.735 206.16 397.261 205.797C380.928 201.794 364.645 197.729 348.33 193.706C343.943 192.623 338.929 192.057 335.233 190.47C332.075 189.111 329.851 188.992 326.113 190.211Z" fill="#F4EDDC"/>
<path d="M1036.53 196.823C1037.66 198.069 1038.55 196.786 1039.6 196.62C1048.28 195.238 1056 192.518 1064.57 190.904C1073.03 189.314 1081.53 187.502 1090.13 184.403C1085.28 183.816 1081.24 182.446 1077.84 184.574C1075.95 185.754 1073.97 186.472 1071.48 187.044C1063.46 188.887 1055.59 190.925 1047.35 192.444C1044.2 193.026 1041.05 193.645 1038.03 194.417C1036.38 194.84 1035.63 195.833 1036.53 196.823Z" fill="#F4EDDC"/>
<path d="M347.317 186.673C350.806 187.644 353.601 188.553 356.556 189.227C368.995 192.055 381.475 194.822 393.97 197.574C395.07 197.816 396.106 199.367 397.418 197.99C398.527 196.823 397.45 195.849 395.157 195.388C391.728 194.696 388.335 193.937 384.91 193.237C376.048 191.431 367.057 189.73 358.899 187.052C355.009 185.778 351.755 185.801 347.317 186.673Z" fill="#F4EDDC"/>
<path d="M1034.52 234.75C1032.28 235.198 1027.42 235.219 1028.76 237.37C1030.03 239.413 1034.07 237.702 1035.88 237.215C1049.65 233.518 1063.17 229.489 1076.81 225.624C1078.14 225.247 1079.08 224.981 1078.56 224.097C1073.47 225.239 1068.32 226.295 1063.32 227.551C1053.72 229.955 1044.46 232.77 1034.52 234.75Z" fill="#F4EDDC"/>
<path d="M1078.53 224.004L1078.52 223.994C1078.55 224.033 1078.53 224.054 1078.55 224.093C1078.57 224.091 1078.58 224.088 1078.6 224.083C1078.6 224.083 1078.52 223.997 1078.53 224.004Z" fill="#F4EDDC"/>
<path d="M355.41 225.236C355.423 225.239 355.441 225.244 355.455 225.247C355.478 225.21 355.459 225.189 355.487 225.147L355.41 225.236Z" fill="#F4EDDC"/>
<path d="M403.218 236.691C398.269 235.78 393.431 234.737 388.685 233.46C377.769 230.524 366.891 227.506 355.451 225.247C354.931 226.132 355.967 226.353 357.178 226.785C361.988 228.499 367.398 229.473 372.319 231.074C381.775 234.152 391.35 237.157 401.92 238.9C403.315 239.129 404.829 239.935 405.455 238.563C405.884 237.641 404.981 237.015 403.218 236.691Z" fill="#F4EDDC"/>
<path d="M1042.82 186.491C1049.06 185.043 1055.26 183.531 1062.18 181.867C1056.36 179.911 1051.58 179.892 1046.91 182.157C1045.03 183.065 1042.58 183.581 1040.67 184.474C1039.55 184.995 1038.89 185.993 1039.87 186.802C1040.93 187.681 1041.91 186.704 1042.82 186.491Z" fill="#F4EDDC"/>
<path d="M394.163 187.929C395.157 187.141 394.297 186.246 393.362 185.569C389.836 183.018 382.903 182.26 376.37 183.961C381.508 185.256 386.084 186.478 390.77 187.542C391.788 187.776 392.939 188.903 394.163 187.929Z" fill="#F4EDDC"/>
<path d="M1078.63 224.068C1079.88 224.805 1081 225.023 1081.79 223.804C1080.6 223.307 1079.57 223.488 1078.63 224.068Z" fill="#F4EDDC"/>
<path d="M1078.6 224.086C1078.61 224.078 1078.62 224.075 1078.63 224.067C1078.6 224.046 1078.56 224.028 1078.53 224.007L1078.6 224.086Z" fill="#F4EDDC"/>
<path d="M1081.82 223.775C1081.81 223.786 1081.8 223.791 1081.8 223.801C1081.83 223.817 1081.87 223.817 1081.9 223.832L1081.82 223.775Z" fill="#F4EDDC"/>
<path d="M1081.9 223.832V223.835L1081.82 223.775L1081.9 223.832Z" fill="#F4EDDC"/>
<path d="M1078.53 224.005L1078.6 224.084L1078.53 224.005Z" fill="#F4EDDC"/>
<path d="M355.401 225.247C355.411 225.239 355.49 225.15 355.49 225.15C355.443 225.181 355.397 225.192 355.35 225.22C355.369 225.231 355.383 225.236 355.401 225.247Z" fill="#F4EDDC"/>
<path d="M352.256 224.926C353.03 226.095 354.116 225.963 355.35 225.221C354.457 224.618 353.439 224.478 352.256 224.926Z" fill="#F4EDDC"/>
<path d="M352.229 224.894L352.146 224.957C352.187 224.942 352.22 224.939 352.261 224.923C352.247 224.91 352.238 224.907 352.229 224.894Z" fill="#F4EDDC"/>
<path d="M352.228 224.894L352.141 224.957L352.228 224.894Z" fill="#F4EDDC"/>
<path d="M1419.31 214.941C1414.26 211.447 1409.55 207.798 1404.66 204.227C1396.76 198.456 1388.07 193.126 1378.21 188.405C1371.63 185.253 1364.44 182.589 1357.46 179.779C1348.75 176.277 1340.36 172.457 1330.52 169.958C1321.15 167.58 1311.78 165.213 1302.11 162.767C1308.58 154.92 1319.88 149.762 1330.57 144.396C1338 140.665 1346.53 137.698 1353.79 133.766C1358.53 131.199 1362.86 128.126 1369.4 126.87C1377.9 125.238 1384.63 121.915 1392.09 119.295C1394.66 118.392 1395.3 116.843 1394.79 115.269C1394.33 113.815 1392.29 113.018 1389.92 112.683C1386.71 112.228 1383.46 111.785 1380.18 111.596C1372.56 111.153 1365.45 109.458 1357.85 108.918C1346.37 108.102 1334.92 107.781 1323.35 107.641C1314 107.528 1304.68 107.981 1295.32 107.683C1284.66 107.343 1274.02 108.686 1263.37 108.905C1247.8 109.226 1232.84 111.256 1217.92 113.441C1213.76 114.052 1214.26 113.236 1214.48 111.68C1215.13 106.991 1215.58 102.269 1215.81 97.593C1216.23 88.9855 1215.44 80.3122 1211.88 71.8837C1208.29 63.3973 1201.7 56.0669 1187.8 51.2773C1178.03 47.9096 1167.66 45.1106 1158.16 41.6376C1145.83 37.1324 1131.98 34.8679 1119.13 31.2159C1113.92 29.7334 1108.44 28.3353 1102.81 27.2873C1092.41 25.3493 1082.21 23.1692 1071.34 21.979C1061.48 20.8995 1052.04 18.6193 1042.37 16.9578C1025.26 14.0167 1007.76 11.9812 990.024 10.9754C975.711 10.1644 961.606 8.62133 947.33 7.68659C930.946 6.61493 914.622 5.16422 898.168 4.44539C878.129 3.5712 858.03 3.10779 838.013 2.08616C824.451 1.39366 810.894 0.827505 797.295 0.593161C789.179 0.453608 781.048 0.601131 772.928 0.501074C768.103 0.443147 763.279 -0.0599007 758.472 0.00592619C736.909 0.292931 715.332 0.150776 693.783 0.827477C681.652 1.20664 669.467 1.19081 657.369 1.75429C643.387 2.40466 629.499 3.55793 615.476 4.13457C597.352 4.8771 579.306 6.21741 561.158 6.91518C550.229 7.33384 539.222 7.61825 528.348 7.68145C519.896 7.73147 511.582 8.16319 503.194 8.4265C490.525 8.82673 478.547 11.2177 466.099 12.2815C452.081 13.4795 437.851 13.8296 424.013 15.7755C416.803 16.7892 409.341 17.0605 402.086 18.0768C396.014 18.9273 389.978 19.8699 383.897 20.6651C374.584 21.8842 364.861 22.2107 355.737 23.7431C333.828 27.4189 311.46 30.4627 291.227 36.8558C276.486 41.5164 260.061 44.3839 246.862 50.7007C237.125 55.3586 227.665 59.5346 225.598 67.8393C221.897 82.7004 221.349 97.3587 226.883 112.038C228.535 116.425 228.728 116.399 221.33 115.445C220.355 115.319 219.333 115.277 218.389 115.098C201.125 111.843 183.291 110.248 165.24 109.668C153.299 109.284 141.408 108.544 129.346 108.813C114.269 109.147 99.1835 108.599 84.0607 109.521C70.6459 110.34 57.848 112.731 44.562 113.768C41.984 113.968 39.7512 114.861 39.2218 116.433C38.6464 118.142 39.5901 119.703 42.3292 120.635C49.7133 123.144 56.292 126.417 64.606 128.063C67.3636 128.608 70.204 129.535 72.2019 130.728C83.582 137.529 97.6598 142.469 109.763 148.762C118.275 153.188 126.612 157.68 131.818 163.773C129.935 164.494 127.915 165.076 125.742 165.566C111.296 168.81 97.0889 172.307 84.5856 177.728C78.0669 180.556 71.5114 183.392 64.5968 185.88C53.6725 189.809 44.8612 195.025 36.4827 200.483C29.8996 204.775 24.2279 209.522 17.6678 213.827C11.1629 218.096 7.19005 223.278 1.39873 227.793C-0.0744131 228.941 -0.783315 230.898 1.30671 232.375C3.32769 233.802 6.17265 233.839 9.07752 233.481C9.89235 233.381 10.698 233.252 11.5174 233.149C24.9092 231.467 37.3803 228.154 51.1726 226.89C69.1727 225.242 87.2648 224.734 105.297 224.207C124.066 223.657 142.927 223.488 161.746 223.322C175.414 223.201 189.119 223.673 202.714 224.752C211.838 225.476 221.077 225.413 230.202 225.979C237.25 226.416 244.385 226.553 251.323 227.838C259.84 229.415 268.398 231.124 277.324 231.733C287.019 232.393 296.572 233.431 306.184 234.342C315.773 235.248 324.782 237.494 334.629 237.775C350.811 238.236 365.902 241.507 381.213 244.171C390.904 245.856 400.557 247.657 410.994 246.762C413.788 246.523 415.367 245.709 415.92 244.369C418.484 238.168 419.105 231.864 417.149 225.595C415.436 220.118 413.539 214.628 412.052 209.156C410.611 203.853 409.088 198.548 407.527 193.247C406.524 189.83 404.438 186.496 405.202 182.923C405.46 181.712 405.308 181.112 408.222 180.785C413.756 180.166 419.368 179.945 424.892 179.345C436.7 178.06 448.527 176.767 460.432 175.853C478.271 174.484 496.192 173.628 513.958 171.73C530.181 169.995 546.786 169.389 563.257 168.478C585.014 167.275 606.421 164.471 628.315 163.91C639.051 163.636 649.805 162.886 660.503 163.094C670.871 163.294 681.146 162.535 691.555 162.928C701.959 163.32 712.52 162.214 722.979 162.393C745.546 162.777 768.094 162.093 790.674 162.564C808.661 162.941 826.725 162.617 844.67 163.573C859.664 164.37 874.768 163.417 889.716 164.926C898.035 165.766 906.722 165.537 914.916 166.609C935.95 169.363 957.177 171.332 978.584 172.723C985.821 173.194 993.039 173.852 1000.17 174.547C1008.32 175.343 1016.41 176.333 1024.67 176.641C1027.87 176.759 1028.49 177.352 1028.82 179.205C1030.04 185.988 1025.9 192.297 1024.15 198.798C1023.16 202.432 1022.93 206.126 1021.55 209.704C1018.07 218.772 1015.04 227.862 1016.08 237.199C1016.33 239.408 1017.09 241.709 1018.58 243.734C1020.61 246.504 1025.48 245.909 1029.49 245.814C1042.22 245.511 1053.9 242.71 1065.89 240.635C1072.38 239.513 1078.93 238.518 1085.63 237.757C1093 236.922 1100.66 237.136 1107.76 236.035C1118.61 234.35 1129.48 232.92 1140.58 231.909C1146.93 231.332 1153.29 230.835 1159.62 230.224C1168.3 229.384 1176.61 227.635 1185.08 226.277C1193.91 224.863 1203.18 224.821 1212.27 224.462C1223.59 224.018 1234.83 223.251 1246.12 222.685C1264.76 221.748 1283.48 222.317 1302.16 222.767C1315.21 223.08 1328.26 222.891 1341.33 223.454C1359.51 224.236 1377.69 224.802 1395.51 227.143C1405.37 228.438 1414.47 231.185 1424.46 232.299C1427.51 232.641 1430.58 232.783 1432.7 231.222C1434.85 229.642 1434.04 227.654 1432.36 226.395C1427.5 222.746 1424.42 218.478 1419.31 214.941ZM323.019 229.858C314.051 228.681 305.051 227.499 295.996 226.482C284.883 225.234 273.346 225.097 262.685 222.538C254.49 220.571 245.858 219.849 237.001 220.028C227.223 220.226 217.74 218.762 208.022 218.412C193.806 217.901 179.627 217.172 165.365 216.906C148.124 216.582 130.985 217.567 113.781 217.682C101.03 217.769 88.1487 217.287 75.4704 218.42C63.1927 219.515 50.8734 220.35 38.5358 221.158C33.6974 221.474 29.0708 222.827 24.3476 223.704C23.344 223.891 22.3451 224.76 21.3047 223.965C20.3195 223.209 21.4887 222.511 22.1655 221.89C26.5435 217.898 31.3589 214.096 36.805 210.547C44.249 205.697 50.3625 200.151 59.206 196.036C65.6372 193.045 72.3769 190.256 79.1304 187.499C84.3692 185.364 89.6495 183.221 95.252 181.425C108.741 177.101 122.427 172.986 137.172 170.168C139.511 169.721 141.748 169.081 143.976 168.468C149.717 166.888 150.583 164.597 145.74 162.343C139.377 159.381 135.847 155.228 131.312 151.55C126.791 147.882 120.641 145.286 115.282 142.216C104.427 135.991 90.6944 131.799 78.7159 126.349C73.1225 123.803 67.5154 121.301 60.1082 118.895C72.9016 117.191 84.1022 114.963 95.8505 114.724C111.406 114.408 126.962 114.729 142.462 115.872C149.469 116.388 156.632 116.183 163.694 116.501C185.551 117.494 207.285 118.895 228.079 123.266C229.953 123.658 230.331 124.208 230.303 125.132C230.188 129.011 229.953 132.892 230.004 136.768C230.031 138.851 227.661 138.282 225.93 138.069C218.196 137.113 210.65 137.774 203.132 138.788C201.71 138.98 199.905 139.109 199.809 140.212C199.694 141.56 201.83 141.702 203.34 141.766C210.945 142.084 218.559 142.361 226.183 142.455C228.07 142.479 229.239 142.606 229.23 143.675C229.212 145.652 228.043 147.577 228.425 149.602C228.581 150.431 227.08 150.252 226.164 150.133C215.447 148.759 204.831 149.236 194.303 150.75C192.53 151.005 189.575 150.855 189.63 152.361C189.69 153.983 192.572 153.491 194.404 153.686C199.961 154.281 205.572 154.007 211.161 153.98C215.014 153.962 218.743 154.423 222.514 154.604C226.979 154.82 227.334 156.021 226.597 157.975C226.385 158.536 226.132 159.094 225.994 159.663C224.838 164.349 224.134 164.576 215.792 163.136C204.619 161.208 193.355 160.76 181.956 162.517C180.465 162.746 178.766 162.762 178.747 163.904C178.724 165.147 180.363 165.339 182.168 165.505C192.678 166.482 203.39 166.253 213.896 167.32C215.668 167.499 217.468 167.693 219.254 167.87C222.946 168.236 224.295 169.347 223.19 171.525C222.5 172.881 222.26 174.342 222.196 175.764C222.067 178.571 221.091 178.96 216.506 178.478C201.553 176.909 186.546 175.566 171.322 177.27C169.895 177.431 167.381 176.922 167.436 178.4C167.487 179.777 169.826 179.724 171.603 179.929C182.904 181.23 194.381 181.53 205.844 181.836C210.36 181.957 214.747 182.628 219.043 183.155C222.965 183.637 220.599 186.28 220.81 187.929C221.013 189.511 221.828 191.657 218.398 192.421C216.699 192.8 214.213 192.136 212.142 191.826C202.981 190.456 193.925 188.885 184.387 188.471C177.463 188.171 170.811 189.05 164.076 189.587C163.045 189.669 161.461 189.798 161.525 190.67C161.585 191.486 163.077 191.647 164.163 191.749C173.642 192.658 183.135 193.527 192.627 194.39C201.185 195.167 209.748 195.931 218.31 196.676C219.544 196.784 220.709 196.984 221.206 197.642C224.051 201.402 229.203 203.79 236.292 205.647C232.816 206.139 230.358 205.468 227.937 205.26C213.283 204.006 198.626 203.224 183.834 204.364C182.407 204.475 180.414 204.225 180.345 205.436C180.28 206.505 182.228 206.342 183.42 206.455C194.036 207.469 204.633 208.417 215.396 209.017C224.64 209.533 233.967 210.905 243.142 212.306C255.572 214.202 268.273 215.528 280.906 216.953C288.644 217.827 295.752 219.652 302.975 221.319C318.126 224.81 333.23 228.36 348.215 232.178C339.891 231.032 331.361 230.953 323.019 229.858ZM405.465 238.563C404.839 239.935 403.324 239.131 401.929 238.9C391.359 237.154 381.779 234.15 372.328 231.074C367.407 229.471 361.998 228.496 357.187 226.785C355.972 226.353 354.936 226.132 355.461 225.247C355.447 225.245 355.428 225.239 355.415 225.237L355.493 225.147C355.493 225.147 355.415 225.237 355.405 225.245C355.387 225.234 355.373 225.229 355.355 225.218C354.121 225.961 353.035 226.092 352.261 224.923C352.22 224.939 352.188 224.939 352.146 224.958C352.132 224.926 352.095 224.913 352.077 224.884C345.356 224.673 339.832 222.419 333.677 221.245C316.118 217.89 299.348 213.346 281.983 209.644C272.937 207.716 262.998 206.545 254.895 203.132C259.48 200.757 261.354 201.054 266.832 202.15C278.622 204.506 289.21 208.303 300.844 210.85C310.626 212.99 319.889 215.908 329.413 218.441C335.541 220.071 341.76 221.587 347.855 223.257C349.347 223.665 351.478 223.686 352.077 224.884C352.128 224.887 352.178 224.892 352.229 224.894C352.238 224.907 352.252 224.91 352.261 224.923C353.44 224.478 354.462 224.615 355.355 225.218C355.401 225.189 355.447 225.179 355.493 225.15C355.465 225.189 355.479 225.208 355.461 225.247C366.896 227.506 377.774 230.527 388.694 233.462C393.44 234.739 398.274 235.782 403.228 236.693C404.981 237.014 405.884 237.641 405.465 238.563ZM406.57 230.382C363.093 220.039 320.892 208.325 276.412 197.824C283.138 196.262 287.71 196.26 292.82 198.361C299.895 201.27 308.458 202.774 316.413 204.751C324.732 206.818 332.811 209.196 341.295 211.073C351.258 213.277 361.026 215.787 370.795 218.267C381.821 221.069 392.676 224.089 403.771 226.79C407.233 227.633 405.456 229.192 406.57 230.382ZM384.901 193.237C388.33 193.937 391.719 194.693 395.148 195.388C397.441 195.852 398.518 196.823 397.409 197.99C396.097 199.367 395.065 197.818 393.96 197.574C381.471 194.822 368.991 192.055 356.547 189.227C353.592 188.555 350.797 187.647 347.308 186.673C351.75 185.801 355.005 185.775 358.886 187.049C367.052 189.73 376.043 191.431 384.901 193.237ZM376.37 183.963C382.898 182.26 389.836 183.018 393.362 185.572C394.297 186.249 395.157 187.144 394.163 187.931C392.934 188.906 391.783 187.776 390.77 187.547C386.088 186.478 381.512 185.259 376.37 183.963ZM348.334 193.708C364.649 197.732 380.932 201.797 397.266 205.799C398.739 206.16 399.747 206.579 399.02 207.445C398.375 208.214 396.805 207.872 395.922 207.637C380.012 203.409 363.374 200.17 347.547 195.802C340.72 193.916 333.723 192.197 326.117 190.214C329.86 188.995 332.079 189.114 335.242 190.475C338.929 192.06 343.942 192.626 348.334 193.708ZM335.564 199.885C347.593 202.779 359.926 205.267 371.693 208.535C380.753 211.052 390.034 213.317 399.25 215.652C400.465 215.96 401.888 216.029 402.491 216.829C402.993 217.498 404.226 218.219 403.112 218.915C402.136 219.523 400.875 218.865 399.931 218.63C388.823 215.884 377.958 212.774 366.638 210.368C352.993 207.466 340.715 202.924 327.089 200.064C318.351 198.229 310.263 195.567 300.443 193.895C305.7 192.35 308.868 192.281 313.724 193.887C320.607 196.16 328.088 198.087 335.564 199.885ZM980.236 166.208C969.202 165.397 958.489 163.307 947.335 162.883C934.85 162.409 922.623 160.937 910.285 159.942C898.159 158.962 885.95 158.657 873.811 158.23C862.569 157.835 851.622 156.174 840.357 156.224C832.604 156.258 824.847 156.382 817.095 156.358C810.742 156.337 804.315 156.448 798.059 155.942C793.335 155.56 788.52 155.537 784.027 155.726C774.102 156.142 764.227 156.179 754.352 155.853C743.686 155.502 733.056 155.645 722.403 155.847C711.76 156.05 701.153 155.131 690.473 155.71C680.57 156.247 670.613 156.558 660.669 156.737C647.259 156.98 633.895 158.528 620.65 158.472C596.187 158.367 572.57 161.677 548.471 162.838C532.45 163.612 516.692 165.587 500.534 165.948C490.682 166.166 480.936 167.72 471.107 168.526C456.652 169.71 442.003 169.926 427.613 171.561C417.89 172.665 408.011 173.444 398.26 174.421C389.73 175.274 381.328 176.809 372.673 177.573C350.875 179.495 329.501 182.605 308.136 185.633C300.07 186.775 292.032 188.54 284.054 189.946C270.897 192.263 258.633 195.973 245.159 197.671C242.535 198.003 239.943 198.069 237.231 197.776C233.24 197.345 231.509 196.144 231.739 193.819C232.462 186.467 232.375 179.063 233.958 171.777C235.178 166.177 237.319 160.595 239.317 155.044C241.973 147.653 241.642 140.267 241.793 132.824C241.909 127.202 241.508 121.612 240.481 116.053C239.699 111.83 238.442 107.57 236.343 103.504C233.553 98.0986 234.419 92.6902 234.515 87.2398C234.621 81.2837 234.483 75.4146 236.426 69.4323C239.289 60.6194 248.501 55.4744 261.626 51.7855C272.292 48.7864 282.531 45.3028 293.519 42.6592C306.943 39.4311 320.262 36.1529 334.468 34.0333C347.639 32.0664 360.884 30.2863 374.114 28.4905C387.235 26.7106 400.608 25.5494 413.747 23.8063C431.208 21.4892 449.25 21.0521 466.582 18.5533C478.814 16.7892 491.276 16.9577 503.549 15.8703C513.792 14.9619 523.98 13.7796 539.328 13.3478C546.238 12.9502 558.175 14.0771 570.002 13.0818C583.352 11.9575 596.859 12.4078 610.223 11.6468C617.92 11.2071 625.521 10.2355 633.209 9.70623C639.286 9.28758 645.422 9.16113 651.536 8.92679C664.472 8.43704 677.394 7.69191 690.344 7.54709C706.724 7.36278 723.085 6.88881 739.533 7.43122C748.197 7.71559 757.151 7.73666 765.939 7.20478C785.298 6.03569 804.605 6.71511 823.899 7.74991C841.158 8.67675 858.384 9.95642 875.68 10.4383C885.725 10.7174 895.756 10.8753 905.741 11.5941C921.021 12.6974 936.281 13.9087 951.593 14.875C965.243 15.7386 979.067 15.8677 992.537 17.4791C1008.64 19.4039 1024.55 21.8579 1040.64 23.8116C1058.45 25.9734 1076.03 28.5696 1093.12 32.1269C1102.61 34.1017 1111.76 36.6032 1121.17 38.7149C1128.3 40.3132 1135.6 41.6613 1142.12 44.0179C1156.23 49.1208 1171.97 52.4753 1186.11 57.5861C1191.09 59.3845 1193.59 61.9149 1195.84 64.5322C1200.61 70.0959 1203.52 76.0887 1203.29 82.3238C1203.04 89.2461 1203.98 96.1739 1202.86 103.088C1201.76 109.9 1200.58 116.701 1199.03 123.495C1198.11 127.523 1199.06 131.699 1198.47 135.81C1197.83 140.17 1197.39 144.541 1196.94 148.909C1196.08 157.282 1194.67 165.666 1198.32 173.963C1200.11 178.041 1199.13 182.218 1199.44 186.346C1199.61 188.619 1199.22 190.904 1199.1 193.184C1198.89 197.208 1193.02 199.23 1186.95 197.065C1172.4 191.881 1155.99 189.506 1140 186.467C1131.69 184.887 1123.34 183.337 1115.14 181.583C1103.65 179.129 1091.82 177.591 1079.77 176.38C1065.39 174.934 1051.11 173.173 1036.81 171.514C1018.05 169.355 999.203 167.604 980.236 166.208ZM1047.35 192.447C1055.59 190.928 1063.46 188.89 1071.48 187.047C1073.97 186.475 1075.95 185.756 1077.84 184.577C1081.24 182.449 1085.28 183.818 1090.13 184.406C1081.53 187.507 1073.03 189.316 1064.57 190.907C1056 192.521 1048.28 195.241 1039.6 196.623C1038.55 196.789 1037.66 198.071 1036.53 196.826C1035.63 195.836 1036.38 194.843 1038.03 194.422C1041.05 193.648 1044.19 193.026 1047.35 192.447ZM1040.67 184.477C1042.58 183.584 1045.03 183.071 1046.91 182.16C1051.58 179.895 1056.36 179.911 1062.18 181.87C1055.26 183.531 1049.06 185.045 1042.82 186.494C1041.91 186.704 1040.92 187.684 1039.86 186.807C1038.89 185.993 1039.55 184.998 1040.67 184.477ZM1036.91 204.625C1046.34 202.35 1055.8 200.115 1065.1 197.676C1075.57 194.93 1086.11 192.286 1096.96 190.069C1097.84 189.888 1098.64 189.493 1099.35 189.119C1104.89 186.233 1104.88 186.228 1113.08 188.042C1105.35 189.716 1098.42 191.675 1091.45 193.563C1083.69 195.662 1075.7 197.479 1067.79 199.388C1057.86 201.787 1047.91 204.175 1037.93 206.502C1037.08 206.7 1035.53 207.124 1034.94 206.21C1034.31 205.244 1035.53 204.957 1036.91 204.625ZM1058.63 208.388C1070.14 205.041 1082.26 202.54 1094.13 199.727C1102.39 197.771 1110.14 195.193 1118.55 193.477C1119.88 193.205 1121.12 192.866 1121.85 192.265C1125.64 189.116 1129.19 190.817 1133.56 192.542C1127.63 193.966 1122.51 195.196 1117.4 196.428C1104.96 199.427 1092.44 202.318 1080.58 206.044C1072.77 208.501 1063.98 209.641 1056.08 212.066C1049.4 214.12 1042.11 215.536 1035.06 217.19C1033.67 217.517 1031.72 218.615 1030.77 217.574C1029.88 216.608 1031.18 215.318 1033.23 214.797C1041.69 212.648 1050.4 210.781 1058.63 208.388ZM1035.68 224.376C1046.32 221.321 1057.08 218.372 1068.12 215.839C1084.52 212.071 1100.66 207.972 1116.73 203.801C1125.68 201.476 1135.28 199.804 1143.34 196.439C1147.59 194.667 1151.16 195.093 1155.33 197.247C1112.2 207.398 1070.63 218.978 1027.85 229.397C1026.05 225.331 1032.29 225.35 1035.68 224.376ZM1078.63 224.068C1078.62 224.076 1078.61 224.078 1078.6 224.086C1078.58 224.089 1078.57 224.091 1078.56 224.097C1079.08 224.981 1078.14 225.25 1076.81 225.624C1063.17 229.489 1049.65 233.518 1035.88 237.215C1034.06 237.702 1030.03 239.416 1028.76 237.37C1027.42 235.219 1032.28 235.198 1034.52 234.75C1044.46 232.77 1053.73 229.955 1063.32 227.548C1068.32 226.292 1073.47 225.242 1078.56 224.097C1078.53 224.06 1078.55 224.033 1078.52 223.994L1078.53 224.004C1078.56 224.028 1078.6 224.044 1078.63 224.068C1079.57 223.491 1080.6 223.307 1081.79 223.804C1081.8 223.794 1081.81 223.786 1081.81 223.775V223.778C1081.9 223.781 1081.98 223.77 1082.06 223.77C1087.22 221.295 1093.59 220.015 1099.6 218.562C1107.34 216.69 1114.8 214.518 1122.46 212.566C1136.93 208.885 1151.34 205.138 1165.7 201.32C1169.75 200.243 1172.05 201.945 1175.51 202.763C1171.6 205.128 1166.3 205.049 1161.95 206.134C1153.81 208.164 1145.46 209.923 1137.12 211.666C1123.46 214.517 1110.59 218.499 1096.59 220.816C1091.63 221.637 1087.52 223.809 1082.06 223.77C1082.01 223.796 1081.95 223.812 1081.89 223.838C1081.86 223.823 1081.83 223.817 1081.79 223.804C1081 225.021 1079.88 224.805 1078.63 224.068ZM1412.77 222.77C1411.58 223.72 1410.38 222.709 1409.31 222.456C1398.25 219.826 1386.44 219.502 1374.79 218.643C1364.01 217.851 1353.34 216.761 1342.4 216.703C1323.77 216.608 1305.15 216.176 1286.53 215.773C1266.9 215.349 1247.21 216.084 1227.57 217.09C1215.94 217.685 1204.49 219.173 1192.64 218.867C1184.56 218.659 1176.41 219.815 1169.04 221.724C1161.87 223.583 1154.21 223.47 1146.85 224.465C1140.45 225.332 1133.86 225.611 1127.43 226.516C1115.61 228.178 1103.76 229.818 1091.62 230.555C1089.68 230.674 1087.98 231.701 1085.28 230.832C1093.27 228.994 1100.99 227.385 1108.46 225.463C1117.81 223.056 1127.3 220.847 1137.02 218.981C1147.95 216.877 1159.56 216.582 1170.72 215.065C1181.2 213.643 1191.63 212.042 1202.24 211.044C1220.97 209.283 1239.35 206.447 1258.61 206.234C1274.5 206.057 1290.35 204.636 1306.22 203.756C1307.36 203.693 1308.9 203.69 1308.86 202.806C1308.81 201.639 1306.99 201.668 1305.51 201.568C1294.5 200.841 1283.5 200.638 1272.39 200.962C1258.61 201.365 1244.93 202.213 1231.27 203.19C1215.84 204.293 1200.98 207.19 1184.71 208.051C1188.62 205.752 1193.53 205.481 1197.87 204.867C1201.78 204.314 1205.04 203.027 1206.43 201.41C1209.45 197.9 1214.27 196.918 1220.32 196.423C1225.54 195.994 1230.65 195.109 1235.83 194.496C1250.02 192.81 1264.43 193.571 1278.74 193.297C1279.74 193.279 1280.74 193.266 1281.74 193.242C1283.3 193.205 1284.98 193.137 1285.02 191.965C1285.04 190.978 1283.45 190.851 1282.16 190.667C1270.55 189.016 1259.05 187.786 1246.83 189.063C1236.1 190.185 1225.11 190.498 1214.52 192.157C1211.35 192.655 1210 192.12 1209.91 190.14C1209.64 184.361 1209.55 184.382 1219.61 183.258C1234.3 181.62 1249.03 180.161 1263.96 179.474C1264.95 179.429 1265.94 179.292 1266.88 179.116C1267.92 178.918 1268.57 178.468 1268.3 177.804C1268.06 177.22 1267.16 177.212 1266.3 177.212C1253.04 177.212 1239.78 177.036 1226.55 177.957C1221.97 178.276 1217.43 178.602 1213.04 179.408C1211.24 179.737 1210.57 179.3 1210.43 178.368C1210.35 177.897 1210.48 177.394 1210.23 176.957C1208.6 174.058 1210.56 173.397 1215.64 172.765C1225.42 171.551 1235.26 170.727 1245.15 169.953C1246.63 169.837 1248.08 169.624 1249.56 169.471C1250.86 169.334 1251.77 168.936 1251.71 168.149C1251.65 167.33 1250.52 167.056 1249.28 166.969C1246.47 166.775 1243.64 166.437 1240.83 166.451C1231.33 166.495 1221.87 166.975 1212.69 168.412C1209.04 168.984 1207.54 168.678 1208.25 166.395C1208.39 165.932 1208.26 165.442 1208.27 164.963C1208.51 157.704 1208.53 157.769 1221.34 156.345C1235.81 154.733 1250.47 154.407 1265.12 153.943C1266.11 153.912 1267.12 153.878 1268.09 153.757C1269.61 153.567 1271.1 153.204 1271.18 152.166C1271.28 150.884 1269.37 150.57 1267.77 150.497C1262.97 150.278 1258.15 149.997 1253.36 150.131C1239.64 150.513 1226.02 151.445 1212.58 153.101C1209.44 153.488 1208.28 153.161 1208.72 151.237C1209 149.983 1208.6 148.68 1208.83 147.419C1208.96 146.721 1209.54 146.226 1211.32 146.031C1222.94 144.749 1234.51 143.319 1246.07 141.855C1247.61 141.66 1250.43 141.863 1249.94 140.275C1249.54 138.972 1247.19 139.483 1245.68 139.522C1235.34 139.783 1225.18 140.807 1215 141.773C1213.32 141.931 1210.44 143.353 1210.03 141.036C1209.71 139.167 1208.45 136.829 1213.66 136.262C1220.06 135.567 1226.48 134.946 1232.63 133.669C1233.57 133.474 1234.52 133.277 1235.44 133.061C1236.52 132.811 1237.8 132.597 1237.6 131.723C1237.36 130.636 1235.8 130.704 1234.5 130.799C1230.04 131.128 1225.59 131.518 1221.14 131.899C1218.83 132.099 1216.52 132.334 1214.21 132.544C1211.6 132.784 1210.02 132.51 1210.41 130.625C1210.91 128.184 1210.95 125.714 1211.3 123.263C1211.5 121.817 1212.73 120.854 1215.38 120.427C1228.67 118.3 1241.97 116.351 1255.95 116.338C1262.39 116.333 1268.7 115.29 1275.21 115.108C1283.59 114.874 1291.97 114.805 1300.37 114.195C1313.49 113.241 1326.83 113.12 1340.06 113.652C1351.13 114.097 1361.68 116.162 1372.64 117.834C1362.75 121.183 1354.37 125.519 1345.42 129.416C1334.85 134.022 1323.65 138.064 1314 143.503C1305.79 148.127 1299.53 153.399 1292.83 158.562C1291.28 159.755 1289.23 160.474 1287.57 161.511C1283.91 163.802 1283.9 165.261 1288.77 166.743C1293.56 168.202 1298.73 169.252 1303.72 170.503C1319.37 174.424 1335.01 178.268 1349.01 184.087C1357.73 187.713 1366.82 191.057 1375.11 195.017C1383.75 199.138 1389.78 204.578 1397.16 209.338C1402.63 212.872 1407.37 216.708 1411.78 220.687C1412.48 221.329 1413.66 222.048 1412.77 222.77Z" fill="#5C3D14"/>
<path d="M361.542 149.904C355.658 149.902 350.244 150.497 344.854 151.089C333.349 152.351 322.084 154.162 310.769 155.879C300.673 157.411 291.314 160.021 281.577 162.046C273.489 163.728 265.074 165.508 258.338 168.941C255.935 170.166 253.44 171.527 255.641 173.254C257.961 175.079 261.359 174.666 264.544 173.47C273.397 170.15 283.069 167.72 292.792 165.413C299.195 163.894 306.138 163.107 312.523 161.569C328.608 157.693 345.185 154.741 362.085 152.327C363.438 152.132 365.469 152.071 365.229 150.897C364.935 149.483 362.665 150.065 361.542 149.904Z" fill="#5C3D14"/>
<path d="M255.296 80.0673C258.905 78.706 262.569 77.3948 266.275 76.1204C274.99 73.124 284.519 71.2729 294.109 69.4087C304.821 67.3259 315.681 65.588 326.633 64.0292C335.836 62.718 345.13 61.62 354.379 60.4088C355.511 60.2613 356.869 60.0243 356.639 59.1607C356.418 58.3128 355 58.3234 353.84 58.3102C351.175 58.2865 348.509 58.3023 345.844 58.3023C341.995 58.326 338.183 58.5367 334.362 58.7947C308.384 60.5457 283.7 64.8667 260.111 71.2176C255.586 72.4341 251.019 73.9771 248.961 77.013C248.114 78.2637 248.188 79.3116 249.785 80.1358C251.47 81.0047 253.404 80.7809 255.296 80.0673Z" fill="#5C3D14"/>
<path d="M1157.55 133.411C1147.04 130.688 1136.27 128.3 1125.45 125.975C1113.56 123.421 1101.43 121.657 1088.86 120.877C1086.92 120.985 1084.46 120.519 1083.72 121.983C1083.2 123.005 1085.12 123.11 1086.33 123.31C1099.25 125.448 1111.65 128.279 1123.89 131.499C1132.13 133.669 1140.38 135.862 1148.73 137.911C1156.95 139.925 1165.09 142.042 1173.32 144.043C1175.15 144.488 1177.38 144.822 1178.66 143.509C1179.94 142.181 1178.58 141.191 1176.94 140.251C1171.43 137.081 1164.48 135.204 1157.55 133.411Z" fill="#5C3D14"/>
<path d="M261.267 156.714C267.997 154.752 274.626 152.696 281.766 151.211C290.734 149.346 299.615 147.337 308.555 145.428C319.258 143.143 329.289 139.838 340.665 138.551C341.931 138.408 343.666 138.316 343.597 137.326C343.514 136.147 341.599 136.126 340.163 136.181C328.341 136.629 316.744 137.787 305.622 140.173C292.451 142.995 279.29 145.828 266.238 148.825C261.331 149.952 256.166 150.858 251.894 152.78C249.758 153.741 249.339 154.992 250.223 156.361C250.936 157.464 252.667 157.835 254.951 157.946C256.866 157.58 259.213 157.311 261.267 156.714Z" fill="#5C3D14"/>
<path d="M1085.53 57.2228C1096.48 59.424 1107.41 61.6727 1118.41 63.7844C1135.66 67.0942 1152.95 70.3143 1167.9 76.5495C1170.66 77.7028 1174.09 78.3927 1176.29 76.5205C1178.22 74.8854 1175.53 73.6425 1173.34 72.4919C1165.22 68.2315 1155.19 65.983 1145.29 63.5816C1126.34 58.9816 1106.44 56.5671 1086.01 55.3375C1084.94 55.2006 1083.52 55.011 1083.29 55.9352C1083.07 56.7962 1084.46 57.0069 1085.53 57.2228Z" fill="#5C3D14"/>
<path d="M1169.95 166.348C1160.57 163.965 1151.16 161.566 1141.91 159.049C1125.34 154.536 1107.74 152.909 1089.91 151.555C1088.69 151.463 1086.98 150.934 1086.48 152C1085.93 153.162 1087.79 153.359 1089.23 153.609C1095.95 154.778 1102.31 156.427 1108.64 158.157C1124.26 162.433 1141.18 164.61 1157.46 167.825C1161.03 168.531 1164.4 169.689 1167.91 169.834C1170 169.787 1171.87 169.837 1172.57 168.736C1173.42 167.409 1171.63 166.772 1169.95 166.348Z" fill="#5C3D14"/>
<path d="M1169.4 96.2291C1160.78 91.874 1150.4 89.3594 1139.93 86.9027C1125.56 83.5271 1110.94 80.6702 1094.32 79.5801C1094.12 79.5722 1092.43 79.1825 1092.27 80.349C1092.14 81.3021 1093.84 81.4418 1095.08 81.6814C1115.89 85.7126 1135.42 91.4316 1155.41 96.5424C1160.92 97.9511 1165.7 100.044 1170.96 101.672C1172.48 102.14 1174.2 102.57 1175.5 101.622C1176.92 100.59 1175.98 99.652 1174.48 98.87C1172.79 97.9958 1171.12 97.098 1169.4 96.2291Z" fill="#5C3D14"/>
<path d="M1134.43 73.4504C1124.75 71.3413 1114.91 69.8115 1104.54 69.5245C1103.7 69.4824 1102.88 69.4165 1102.04 69.4059C1100.61 69.3875 1098.76 69.0347 1098.4 70.2696C1098.07 71.4334 1099.94 71.6046 1101.3 71.8863C1102.87 72.2102 1104.51 72.3998 1106.09 72.7079C1117.09 74.8617 1128.37 76.6523 1139 79.3012C1150.88 82.2634 1162.44 85.6705 1174.52 88.4168C1176.87 88.9513 1179.77 89.8044 1181.29 88.2878C1183.11 86.4789 1179.13 86.1129 1177.61 85.1518C1177.29 84.9544 1176.71 84.9042 1176.29 84.7515C1163.19 79.9461 1148.91 76.6022 1134.43 73.4504Z" fill="#5C3D14"/>
<path d="M349.789 73.4451C349.577 72.2812 347.957 72.6263 346.668 72.679C344.835 72.7501 342.998 72.8052 341.166 72.8684C319.249 74.235 297.92 77.0393 277.291 81.4761C271.583 82.7031 265.976 84.1433 260.99 86.2235C258.969 87.066 257.155 88.064 258.988 89.5359C260.737 90.9419 263.172 90.3969 265.299 89.7623C283.99 84.1775 304.052 80.8257 324.331 77.8214C331.904 76.6997 339.412 75.4279 347.206 74.8513C348.587 74.746 349.964 74.4167 349.789 73.4451Z" fill="#5C3D14"/>
<path d="M330.205 91.7029C330.007 90.5154 328.124 90.6681 326.748 90.4548C326.108 90.3548 325.44 90.3021 324.971 90.2494C324.446 90.2679 324.11 90.2705 323.779 90.2915C306.128 91.3658 289.132 94.0227 272.476 97.3983C267.979 98.3093 263.26 99.0703 259.278 100.737C257.588 101.445 256.691 102.28 257.446 103.42C258.205 104.568 259.812 104.934 261.916 104.637C263.858 104.36 265.865 104.215 267.762 103.87C279.929 101.659 292.055 99.373 304.236 97.1823C311.86 95.8131 319.562 94.5834 327.208 93.2616C328.58 93.022 330.403 92.8983 330.205 91.7029Z" fill="#5C3D14"/>
<path d="M1172.08 155.773C1170.31 155.134 1168.45 154.578 1166.69 153.928C1149.44 147.564 1131.05 143.003 1110.27 142.168C1108.94 142.116 1107.61 142.018 1106.27 142.024C1104.92 142.029 1102.89 141.36 1102.48 142.59C1102.17 143.522 1104.14 143.588 1105.35 143.838C1124.08 147.727 1141.98 152.732 1160.31 157.166C1163.21 157.869 1166.08 158.622 1169.07 159.183C1170.94 159.536 1173.21 159.81 1174.23 158.354C1175.09 157.143 1173.73 156.369 1172.08 155.773Z" fill="#5C3D14"/>
<path d="M1173.57 122.702C1172.64 122.307 1171.58 122.004 1170.52 121.72C1153.99 117.241 1137.14 113.226 1119.46 110.474C1113.37 109.526 1107.18 108.763 1101.47 107.975C1099.82 107.946 1098.56 107.92 1098.2 108.773C1097.87 109.56 1098.7 110.034 1099.87 110.324C1100.63 110.514 1101.43 110.658 1102.23 110.806C1117.54 113.639 1132.06 117.647 1147.17 120.754C1155.14 122.391 1162.27 125.193 1170.75 126.049C1172.63 126.238 1174.49 126.586 1175.53 125.33C1176.55 124.105 1175.08 123.345 1173.57 122.702Z" fill="#5C3D14"/>
<path d="M324.441 107.625C323.424 106.137 320.91 106.237 318.668 106.224C300.945 106.127 284.455 108.971 268.595 113.234C265.796 113.987 262.924 114.995 264.83 117.136C266.671 119.205 269.663 118.458 272.633 117.865C280.74 116.248 288.865 114.65 297.082 113.228C305.014 111.856 313.061 110.703 321.072 109.484C322.761 109.229 324.354 109.01 324.441 107.625Z" fill="#5C3D14"/>
<path d="M1173.31 111.751C1168.52 110.25 1163.54 108.939 1158.7 107.512C1145.56 103.644 1132.18 100.305 1117.47 98.9807C1115.88 98.8385 1113.63 98.3013 1112.93 99.2913C1111.99 100.592 1114.74 100.621 1116.02 100.979C1130.01 104.889 1143.94 108.868 1158.13 112.536C1162.79 113.742 1166.92 115.659 1171.2 116.106C1174.04 116.122 1175.96 116.032 1176.43 114.695C1176.96 113.215 1175.25 112.362 1173.31 111.751Z" fill="#5C3D14"/>
<path d="M312.753 123.084C312.482 123.116 311.998 123.2 311.506 123.229C292.769 124.277 276.505 129.369 259.715 133.593C257.648 134.114 256.516 135.088 257.685 136.368C258.781 137.563 260.71 137.758 262.832 137.268C267.279 136.244 271.717 135.204 276.159 134.174C288.603 131.291 301.037 128.398 313.504 125.546C314.908 125.225 315.925 124.869 315.653 123.929C315.41 123.047 314.217 123.008 312.753 123.084Z" fill="#5C3D14"/>
</svg>
